<svg xmlns="http://www.w3.org/2000/svg" xmlns:xlink="http://www.w3.org/1999/xlink" width="220.173" height="227.773" viewBox="0 0 220.173 227.773">
  <defs>
    <linearGradient id="linear-gradient" y1="0.5" x2="1" y2="0.5" gradientUnits="objectBoundingBox">
      <stop offset="0" stop-color="#c3002d"/>
      <stop offset="0.085" stop-color="#c80c29"/>
      <stop offset="0.303" stop-color="#d52621"/>
      <stop offset="0.526" stop-color="#dd391c"/>
      <stop offset="0.755" stop-color="#e34519"/>
      <stop offset="0.999" stop-color="#e54918"/>
    </linearGradient>
    <linearGradient id="linear-gradient-2" y1="0.5" x2="1" y2="0.5" gradientUnits="objectBoundingBox">
      <stop offset="0" stop-color="#14214f"/>
      <stop offset="0.06" stop-color="#142b5c"/>
      <stop offset="0.239" stop-color="#17457e"/>
      <stop offset="0.421" stop-color="#185998"/>
      <stop offset="0.606" stop-color="#1a68ab"/>
      <stop offset="0.796" stop-color="#1a71b7"/>
      <stop offset="0.999" stop-color="#1b74bb"/>
    </linearGradient>
  </defs>
  <g id="Group_110" data-name="Group 110" transform="translate(-336.999 -1926)">
    <g id="Group_108" data-name="Group 108" transform="translate(299.371 1580.032)">
      <path id="Path_126" data-name="Path 126" d="M214.5,384.708a1.073,1.073,0,0,0,.045-.111.936.936,0,0,0,.043-.146.915.915,0,0,0,.015-.117.978.978,0,0,0,0-.153.922.922,0,0,0-.015-.116.963.963,0,0,0-.045-.154c-.008-.023-.01-.047-.02-.07s-.017-.023-.023-.036-.012-.033-.02-.049l-21.529-37.288a1,1,0,0,0-.866-.5H105.968a1,1,0,0,0-.866.5L83.574,383.756c-.009.016-.012.033-.02.049s-.018.023-.024.036-.012.047-.02.071a.879.879,0,0,0-.06.269.978.978,0,0,0,0,.153,1.136,1.136,0,0,0,.015.117,1.06,1.06,0,0,0,.043.146.822.822,0,0,0,.046.11c.008.016.011.034.02.049a.839.839,0,0,0,.068.089c.015.021.025.046.043.067l64.584,74.416.005,0a.988.988,0,0,0,.076.064.97.97,0,0,0,.142.112c.02.013.033.032.054.044s.033.011.049.018a.586.586,0,0,0,.058.023.854.854,0,0,0,.084.033,1.008,1.008,0,0,0,.287.047h0a1.014,1.014,0,0,0,.287-.047.854.854,0,0,0,.084-.033c.02-.008.039-.013.058-.022s.033-.011.048-.019.035-.031.055-.044a1.028,1.028,0,0,0,.142-.112.991.991,0,0,0,.076-.064l.005,0,64.585-74.416c.018-.021.027-.046.043-.068a.857.857,0,0,0,.068-.088C214.484,384.741,214.488,384.723,214.5,384.708Zm-45.676-1.452H129.228l19.8-34.287Zm1.733-1-19.8-34.288h39.592Zm-43.057,0-19.8-34.288h39.591Zm21.528,72.818L134.71,405.6l-5.884-20.34h40.4l-5.884,20.34Zm43.057-106.106,19.8,34.288H172.285Zm-86.113,0,19.8,34.288H86.172ZM86.632,385.256h40.112L146.8,454.585Zm64.616,69.329,10.238-35.39,9.818-33.939h40.113Z" fill="url(#linear-gradient)"/>
      <path id="Path_127" data-name="Path 127" d="M148.71,522.716c-.055-.587-1.436-14.5-10.026-25.734-4.692-6.135-11.121-11.332-17.338-16.357-5.1-4.125-9.922-8.021-13.124-11.965-3.435-4.23-7.829-13.045-12.078-21.569C92.373,439.525,88.811,432.38,85.778,428c-3.379-4.881-9.946-8.982-18.247-5.85a10.436,10.436,0,0,0-5.817,5.316c-.183-14.888-.477-40.167-.477-48.416,0-12.787-11.4-14.19-11.519-14.2a.982.982,0,0,0-.109-.006H38.628a1,1,0,0,0-1,1V483.511c0,6.707,4.323,10.965,6.645,13.252l.439.434c3.871,3.874,9.409,9.362,15.11,15.01,10.322,10.229,21,20.806,23.559,23.566,3.581,3.857,5.8,7.617,5.8,14.432v22.536a1,1,0,0,0,2,0V550.205c0-7.444-2.533-11.7-6.335-15.793-2.593-2.791-13.281-13.383-23.618-23.625-5.7-5.646-11.233-11.132-15.1-15l-.45-.445c-2.114-2.082-6.049-5.957-6.049-11.827V366.84h9.919c.838.11,9.69,1.533,9.69,12.208,0,11.909.612,59.25.618,59.726a1,1,0,0,0,.147.51L90.873,489.6a1,1,0,1,0,1.705-1.045L61.852,438.474c-.008-.547-.025-1.879-.049-3.794.277-3.666,1.568-8.824,6.434-10.66,9.091-3.428,14.466,3.049,15.9,5.117,2.952,4.263,6.647,11.676,10.221,18.845,4.3,8.622,8.742,17.538,12.315,21.938,3.335,4.108,8.233,8.067,13.419,12.26,6.126,4.952,12.46,10.072,17.007,16.017,8.232,10.766,9.611,24.567,9.619,24.612v49.932a1,1,0,0,0,2,0Z" fill="url(#linear-gradient-2)"/>
      <path id="Path_128" data-name="Path 128" d="M256.8,364.84H245.82a1.014,1.014,0,0,0-.11.006c-.115.012-11.518,1.415-11.518,14.2,0,8.238-.293,33.463-.476,48.359a10.507,10.507,0,0,0-5.819-5.259c-8.3-3.132-14.867.967-18.246,5.85-3.032,4.382-6.594,11.526-10.364,19.09-4.25,8.525-8.645,17.342-12.08,21.572-3.2,3.944-8.022,7.84-13.124,11.965-6.217,5.025-12.646,10.222-17.338,16.357-8.591,11.236-9.972,25.147-10.031,25.827v49.932a1,1,0,0,0,2,0l0-49.84c.013-.137,1.392-13.938,9.624-24.7,4.547-5.945,10.88-11.065,17.006-16.016,5.186-4.193,10.084-8.153,13.42-12.26,3.574-4.4,8.018-13.318,12.317-21.941,3.573-7.167,7.267-14.58,10.218-18.843,1.432-2.068,6.807-8.548,15.9-5.117,4.867,1.836,6.158,6.994,6.435,10.66-.024,1.915-.041,3.247-.048,3.794l-30.727,50.085a1,1,0,0,0,1.705,1.045l30.871-50.32a1,1,0,0,0,.147-.51c.006-.476.618-47.817.618-59.726,0-10.683,8.865-12.1,9.689-12.208h9.92V483.511c0,5.87-3.935,9.745-6.049,11.827l-.45.445c-3.865,3.868-9.392,9.345-15.084,14.986-10.345,10.251-21.042,20.85-23.636,23.643-3.8,4.1-6.335,8.349-6.335,15.793v22.536a1,1,0,0,0,2,0V550.205c0-6.815,2.219-10.575,5.8-14.432,2.566-2.762,13.248-13.347,23.579-23.585,5.694-5.642,11.224-11.121,15.091-14.991l.439-.434c2.323-2.287,6.645-6.545,6.645-13.252V365.84A1,1,0,0,0,256.8,364.84Z" fill="url(#linear-gradient-2)"/>
    </g>
  </g>
</svg>
