<?xml version="1.0" encoding="utf-8"?>
<!-- Generator: Adobe Illustrator 25.4.1, SVG Export Plug-In . SVG Version: 6.00 Build 0)  -->
<svg version="1.1" id="Layer_1" xmlns="http://www.w3.org/2000/svg" xmlns:xlink="http://www.w3.org/1999/xlink" x="0px" y="0px"
	 viewBox="0 0 220.2 227.8" style="enable-background:new 0 0 220.2 227.8;" xml:space="preserve">
<style type="text/css">
	.st0{fill:#FFC300;}
	.st1{fill:#FF1818;}
</style>
<g id="Group_108" transform="translate(299.371 1580.032)">
	<path id="Path_126" class="st0" d="M-122.5-1541.3c0,0,0-0.1,0-0.1c0,0,0-0.1,0-0.1c0,0,0-0.1,0-0.1c0-0.1,0-0.1,0-0.2
		c0,0,0-0.1,0-0.1c0-0.1,0-0.1,0-0.2c0,0,0,0,0-0.1c0,0,0,0,0,0c0,0,0,0,0,0l-21.5-37.3c-0.2-0.3-0.5-0.5-0.9-0.5H-231
		c-0.4,0-0.7,0.2-0.9,0.5l-21.5,37.3c0,0,0,0,0,0s0,0,0,0c0,0,0,0,0,0.1c0,0.1-0.1,0.2-0.1,0.3c0,0.1,0,0.1,0,0.2c0,0,0,0.1,0,0.1
		c0,0,0,0.1,0,0.1c0,0,0,0.1,0,0.1c0,0,0,0,0,0c0,0,0,0.1,0.1,0.1c0,0,0,0,0,0.1l64.6,74.4h0c0,0,0,0,0.1,0.1c0,0,0.1,0.1,0.1,0.1
		c0,0,0,0,0.1,0s0,0,0,0c0,0,0,0,0.1,0c0,0,0.1,0,0.1,0c0.1,0,0.2,0,0.3,0l0,0c0.1,0,0.2,0,0.3,0c0,0,0.1,0,0.1,0c0,0,0,0,0.1,0
		c0,0,0,0,0,0s0,0,0.1,0c0.1,0,0.1-0.1,0.1-0.1c0,0,0.1,0,0.1-0.1h0l64.6-74.4c0,0,0,0,0-0.1
		C-122.6-1541.2-122.5-1541.2-122.5-1541.3C-122.5-1541.3-122.5-1541.3-122.5-1541.3z M-168.2-1542.7h-39.6l19.8-34.3L-168.2-1542.7
		z M-166.4-1543.7l-19.8-34.3h39.6L-166.4-1543.7z M-209.5-1543.7l-19.8-34.3h39.6L-209.5-1543.7z M-188-1470.9l-14.3-49.5
		l-5.9-20.3h40.4l-5.9,20.3L-188-1470.9z M-144.9-1577l19.8,34.3h-39.6L-144.9-1577z M-231-1577l19.8,34.3h-39.6L-231-1577z
		 M-250.4-1540.7h40.1l20.1,69.3L-250.4-1540.7z M-185.8-1471.4l10.2-35.4l9.8-33.9h40.1L-185.8-1471.4z"/>
	<path id="Path_127" class="st1" d="M-188.3-1403.3c-0.1-0.6-1.4-14.5-10-25.7c-4.7-6.1-11.1-11.3-17.3-16.4c-5.1-4.1-9.9-8-13.1-12
		c-3.4-4.2-7.8-13-12.1-21.6c-3.8-7.6-7.3-14.7-10.4-19.1c-3.4-4.9-9.9-9-18.2-5.8c-2.6,0.9-4.6,2.9-5.8,5.3
		c-0.2-14.9-0.5-40.2-0.5-48.4c0-12.8-11.4-14.2-11.5-14.2c0,0-0.1,0-0.1,0h-11c-0.6,0-1,0.4-1,1v117.7c0,6.7,4.3,11,6.6,13.3
		l0.4,0.4c3.9,3.9,9.4,9.4,15.1,15c10.3,10.2,21,20.8,23.6,23.6c3.6,3.9,5.8,7.6,5.8,14.4v22.5c0,0.6,0.4,1,1,1c0.6,0,1-0.4,1-1
		v-22.5c0-7.4-2.5-11.7-6.3-15.8c-2.6-2.8-13.3-13.4-23.6-23.6c-5.7-5.6-11.2-11.1-15.1-15l-0.4-0.4c-2.1-2.1-6-6-6-11.8v-116.7h9.9
		c0.8,0.1,9.7,1.5,9.7,12.2c0,11.9,0.6,59.2,0.6,59.7c0,0.2,0.1,0.4,0.1,0.5l30.9,50.3c0.3,0.5,0.9,0.6,1.4,0.4
		c0.5-0.3,0.6-0.9,0.4-1.4c0,0,0,0,0,0l-30.7-50.1c0-0.5,0-1.9,0-3.8c0.3-3.7,1.6-8.8,6.4-10.7c9.1-3.4,14.5,3,15.9,5.1
		c3,4.3,6.6,11.7,10.2,18.8c4.3,8.6,8.7,17.5,12.3,21.9c3.3,4.1,8.2,8.1,13.4,12.3c6.1,5,12.5,10.1,17,16
		c8.2,10.8,9.6,24.6,9.6,24.6v49.9c0,0.6,0.4,1,1,1s1-0.4,1-1L-188.3-1403.3z"/>
	<path id="Path_128" class="st1" d="M-80.2-1561.2h-11c0,0-0.1,0-0.1,0c-0.1,0-11.5,1.4-11.5,14.2c0,8.2-0.3,33.5-0.5,48.4
		c-1.2-2.4-3.3-4.3-5.8-5.3c-8.3-3.1-14.9,1-18.2,5.9c-3,4.4-6.6,11.5-10.4,19.1c-4.2,8.5-8.6,17.3-12.1,21.6
		c-3.2,3.9-8,7.8-13.1,12c-6.2,5-12.6,10.2-17.3,16.4c-8.6,11.2-10,25.1-10,25.8v49.9c0,0.6,0.4,1,1,1s1-0.4,1-1v-49.8
		c0-0.1,1.4-13.9,9.6-24.7c4.5-5.9,10.9-11.1,17-16c5.2-4.2,10.1-8.2,13.4-12.3c3.6-4.4,8-13.3,12.3-21.9
		c3.6-7.2,7.3-14.6,10.2-18.8c1.4-2.1,6.8-8.5,15.9-5.1c4.9,1.8,6.2,7,6.4,10.7c0,1.9,0,3.2,0,3.8l-30.7,50.1
		c-0.3,0.5-0.1,1.1,0.4,1.4c0.5,0.3,1.1,0.1,1.4-0.3l30.9-50.3c0.1-0.2,0.1-0.3,0.1-0.5c0-0.5,0.6-47.8,0.6-59.7
		c0-10.7,8.9-12.1,9.7-12.2h9.9v116.7c0,5.9-3.9,9.7-6,11.8l-0.4,0.4c-3.9,3.9-9.4,9.3-15.1,15c-10.3,10.3-21,20.8-23.6,23.6
		c-3.8,4.1-6.3,8.3-6.3,15.8v22.5c0,0.6,0.4,1,1,1s1-0.4,1-1v-22.5c0-6.8,2.2-10.6,5.8-14.4c2.6-2.8,13.2-13.3,23.6-23.6
		c5.7-5.6,11.2-11.1,15.1-15l0.4-0.4c2.3-2.3,6.6-6.5,6.6-13.3v-117.7C-79.2-1560.7-79.6-1561.2-80.2-1561.2
		C-80.2-1561.2-80.2-1561.2-80.2-1561.2z"/>
</g>
</svg>
