<svg id="Layer_1" data-name="Layer 1" xmlns="http://www.w3.org/2000/svg" viewBox="0 0 360 360"><defs><style>.cls-1{fill:#f27321;}.cls-2{fill:#ed6e23;}.cls-3{fill:#2584c6;}.cls-4{fill:#1b84c7;}</style></defs><path class="cls-1" d="M180.29,68.94V310.58l-.71.11c-.4-2-.89-4-1.18-6q-1-7.08-1.85-14.2c-.43-3.61-.71-7.23-1.15-10.84-.94-7.85-2-15.7-2.9-23.55-.79-6.89-1.38-13.8-2.18-20.69-.45-3.92-1.22-7.8-1.7-11.72-.5-4.1-.75-8.23-1.25-12.32-.9-7.36-1.93-14.71-2.84-22.06-.45-3.61-.75-7.23-1.13-10.84-.7-6.56-1.37-13.13-2.16-19.68a52.79,52.79,0,0,0-1.46-5.92c-16.66,19.58-32.57,39-48.87,58.13C112.35,205.31,172.52,82.52,180.29,68.94Z"/><path class="cls-2" d="M159.08,220.67l-4.59-.6c-1.8-3.55-3.12-7.21-5.33-10.22a10.18,10.18,0,0,0-10.51-4.26c-1.22,1.64-2.6,3.08-2.14,5l8.53,2.8c2.87,4.28,2.87,4.28,2.9,7h-8.88q-45.23,0-90.44,0c-1.92,0-4-.7-6,1.07v4.69c8.4.3,16.5-.12,24.91.28-.32,1.29-.49,2-.73,3-6.87-2.35-12.54-.26-18.27,4.18l-3.5,7.48c1.57,2.37.37,5.57,2.39,6.74,5.09-.21,9.36-.36,13.63-.57A9.55,9.55,0,0,1,70.22,252a4.47,4.47,0,0,1-3.79,4.19c-3,.6-6,.45-8.38-1.84L55.49,250c-2.5,1.12-4.67,2.11-6.05,4.15,1.08,2.43,3,3.44,5,4.21a11.13,11.13,0,0,1,5.78,5.2,55,55,0,0,0,3.59,4.86c2.25-.33,4.39.45,6.51-.66.33-3.24-3.45-4-3.92-7.25,3.62-2.06,8.52-2.62,10.76-7,1-4.06-.63-7.19-3.71-9.6-4.77-3.74-10.11-5.49-16.24-4.08-2.48.56-5,.92-7.74,1.41a6.54,6.54,0,0,1,3.73-5.43c4.58-2.47,9.35-1.9,14.08-1a81.42,81.42,0,0,1,8.87,2.73c.12-3.94.24-7.49.36-11.06H90.65l-3.89,3.14c1.68,3.82,3.2,7.3,4.93,11.23-1,1.63-1.75,3-2.77,4.67l-5.8-6.34-2.21.3c-1,1.77-.49,3,.42,4.35,1.58,2.33,2.78,4.92,4.49,7.14,2.1,2.72,3.22,6.22,6.31,8.25,1.74-.27,3.61.6,5.63-1-1.69-3.42-4.7-5.91-6.63-9.52l6-3.3c4.06,1.93,7.93.57,11.94,0,.83,4.66-.49,9.21.9,13.51,2.74.28,5,1,7.44-1.09V253.2c0-7.5,0-15,0-22.49,0-1.46-.37-3.06,1.5-4.18h14.81l-3.92,2.95L134.62,241,132,245.43l-7-6.9c-2.68,2.05-1.65,4.08-.47,5.93,2.84,4.46,5.79,8.86,8.76,13.24a9,9,0,0,0,1.91,1.6l5.26-.29c-.68-4.39-4.68-6.48-6-10l5.2-4.21c3.27-6.77,1.38-12.37-1.38-18.2h9c.62,10.79-.24,21.39.47,32,2.84.78,5.18,1.31,7.86-.7V227.3l4.28-1.74C160.56,223.71,160.75,222.16,159.08,220.67Zm-50,16.22c-2.48,3.51-6,4.88-10.64,5.44.13-5.48,0-10.73-3.49-15.45a15.91,15.91,0,0,1,2.5-.55c3.78,0,7.56,0,11.63,0Z"/><path class="cls-3" d="M306.08,221.75v3.49H230.93l-.68,2.25,6.17,2.91a24.39,24.39,0,0,1-5.37,5.26c-2-1-3.92-2.1-6-3-3.76-1.65-7.52-3.94-11.7-.7-2.45,3.56-2.45,3.56-2.72,6.34,2.64,0,5.28-.15,7.87.1,4.39.43,9,.49,12.47,3.83,1.24,1.18,2.4,2.47,3.18,3.28-.77,6.52-5.46,9.14-9.15,12.43H205.71l4.49-4.35c5.85-.24,12-.47,18.08-.78.34,0,.64-.7,1.13-1.27-2.81-5-7.62-7-12.85-8.15a57.64,57.64,0,0,0-8.82-1,17.14,17.14,0,0,0-3.82.67c1.88-6.51,3.63-11.56,14.29-15.34v-2.37c-10.15-.13-20.23,0-30.51-.1V222C188.57,221.15,296.53,220.83,306.08,221.75Z"/><path class="cls-3" d="M298.26,231.61c-4.18,1-17.17.93-21.46,0-1.64,2.52-1.84,5.85-1.27,22l2.65,3.73c7.69,1.9,15.63.46,24,1V234.59Zm-1.33,20.56H281.68c-.39-1.3-1.25-2.82-1.2-4.32.1-3.37-1-6.92.91-10.3h15.76C297.41,242.81,297.71,247.43,296.93,252.17Z"/><path class="cls-4" d="M237.27,137.16l-5,10.06L213.63,143l5.1-10.25Z"/><path class="cls-4" d="M121.26,110l-4.88,10.25-18.49-4.14,4.84-9.87C108.85,107.24,114.87,108.9,121.26,110Z"/><path class="cls-4" d="M189,137l5.31-10.46a45.56,45.56,0,0,0,18.38,4c-1.85,3.9-3.42,7.24-5.14,10.88Z"/><path class="cls-4" d="M146,115.91,141,126,123,121.82l4.41-9.46C133.66,112.41,139.3,114.63,146,115.91Z"/><path class="cls-3" d="M248.37,258.11c-1.36.07-2.16.14-3,.14s-1.62-.07-3-.14c0-8.85,0-17.56,0-26.25h5.53c1.35,4.13.55,8.48.45,12.81S248.37,253.29,248.37,258.11Z"/><path class="cls-3" d="M192.73,231.87h5.1c.69,3.51.78,20.83.06,26.17h-4.81C192.22,254.64,192,239.05,192.73,231.87Z"/><path class="cls-3" d="M251.83,238c2.77-3.9,6.95-4.43,11-5.61,2.67.45,4.62,2.12,6.35,4.55v3.57l-4.62,4.56c-.31-2.26-1-5.35-4.15-6.66C257.69,237.3,254.83,236.5,251.83,238Z"/><path class="cls-3" d="M199.66,213.48c-2.94,4.43-3,4.45-7,2.63v-4.94l3.93-1.09Z"/></svg>