<svg id="Layer_1" data-name="Layer 1" xmlns="http://www.w3.org/2000/svg" viewBox="0 0 360 360"><defs><style>.cls-1{fill:#fff;}</style></defs><rect width="360" height="360"/><path class="cls-1" d="M176.86,20h6.24c.94,1.16,2.55,1,3.7,2a38.73,38.73,0,0,0,4.76,3.52,56.87,56.87,0,0,1,9,7.43C206.41,38.44,212.14,44,217,50.48c2.34,3.11,5.15,5.92,7.18,9.22,2.34,3.82,4.93,7.47,7.24,11.32,2.6,4.34,5,8.79,7.35,13.22,1.78,3.29,3.25,6.76,4.86,10.15.42.87.89,1.72,1.24,2.61,1.67,4.2,3.33,8.4,4.93,12.63a58.4,58.4,0,0,1,3.1,9c.88,4.41,2.41,8.62,3.42,13,1,4.16,2,8.34,2.83,12.53.6,2.9,1.1,5.85,1.44,8.82a32.39,32.39,0,0,0,.59,4.42,7.62,7.62,0,0,1,.5,3.5c-.27,1.31.67,2.28.69,3.49,0,2.22-.41,4.49.6,6.62-.44,4.31.52,8.56.66,12.85.28,8.68-.54,17.32-.66,26,0,.31.13.71,0,.92-1.16,1.7-.32,3.55-.67,5.35,4.18.91,8.2,1.73,12.18,2.67,2.74.64,5.56,1.16,8.2,2a37.28,37.28,0,0,1,23.13,21.69,32,32,0,0,1,2.64,11.67c.15,24.77.08,49.55.08,74.32a5.4,5.4,0,0,1-.06,1.85c-1.83,4.53-4.22,8.49-9.7,9.16-.09,0-.15.33-.22.51h-5.62c-.41-1.18-1.65-.72-2.46-1.17a102.72,102.72,0,0,0-9.34-4.49c-4.52-1.9-8.74-4.42-13.29-6.29-4-1.63-7.75-3.82-11.7-5.6-6-2.72-11.93-5.82-17.91-8.69-3.55-1.7-7.16-3.28-10.89-5H132.76c-2.93,1.34-5.36,2.5-7.84,3.56-4.24,1.8-8.21,4.16-12.53,5.86s-8.3,4-12.45,6.05q-7.78,3.78-15.59,7.49c-3,1.44-6.12,2.78-9.16,4.21-1.4.66-2.72,1.47-4.09,2.17s-2.84.91-4,1.88H60.84c-.19-1.34-1.66-.11-2.21-1.16-.34-.65-1.48-.84-2.18-1.35a11,11,0,0,1-4.93-9q-.12-37.16,0-74.32a23.6,23.6,0,0,1,.83-5.9c.57-2.12,1.37-4.2,2.15-6.28a36.92,36.92,0,0,1,6.2-10.22,30.23,30.23,0,0,1,8.07-6.83,34.89,34.89,0,0,1,10-4.35c2.85-.66,5.72-1.28,8.54-2,3.37-.86,6.82-1.48,10.17-2.52.32-1.81-.24-3.54-.42-5.31-.35-3.53-.19-7.1-.6-10.67a85.18,85.18,0,0,1-.08-12.48c.14-4.18-.36-8.35.49-12.57.59-2.93.07-6.05.66-9.1a73.18,73.18,0,0,0,.69-8.78c0-.11,0-.25,0-.31.94-1.15.21-2.67.7-3.77a10.07,10.07,0,0,0,.54-3.84,2.9,2.9,0,0,1,.11-.89c1-2.48,1.11-5.15,1.72-7.71s1.26-5.12,1.73-7.71c.32-1.75,1.14-3.33,1.39-5,.52-3.6,1.88-6.94,2.92-10.36,1.27-4.13,2.89-8.16,4.46-12.2q2.16-5.5,4.54-10.92c1.12-2.55,2.45-5,3.72-7.51,2.06-4,4-8.14,6.27-12.07,1.75-3,3.71-6,5.66-8.89q3.42-5.16,7.05-10.18c2.65-3.66,5.62-7.09,8.57-10.51,2.47-2.87,5.06-5.64,7.71-8.35,1.64-1.66,3.5-3.1,5.23-4.66,2.28-2,4.5-4.16,6.82-6.16a38.23,38.23,0,0,1,3.39-2.32,24,24,0,0,0,2.84-2.14C174.58,20.72,176.08,21.11,176.86,20Zm44.8,263.74a9.35,9.35,0,0,1,.23-1.65c1-2.92,2-5.83,3-8.75.67-2,1.16-4.1,1.91-6.09s1.1-4.32,1.7-6.45c.47-1.67,1-3.37,1.43-5.06s.72-3.64,1.14-5.44c.75-3.25,1.41-6.55,2.1-9.8.59-2.76.83-5.6,1.63-8.34.35-1.18.36-2.52.64-3.79s.34-2.74.58-4.12c.61-3.44.74-6.95,1.29-10.41.37-2.27.26-4.61.59-6.93.54-3.82-.11-7.73.63-11.62a34.94,34.94,0,0,0,.07-7.79c-.09-2.63.22-5.23-.5-7.89-.52-1.94,0-4.15-.12-6.22s-.6-4-.55-6c.06-2.87-1.16-5.61-.69-8.49a.71.71,0,0,0-.11-.57c-.92-.74-.32-1.75-.51-2.61s-.48-1.69-.6-2.55c-.26-1.89,0-4-.76-5.63-.63-1.41-.44-2.87-1-4.28a16.17,16.17,0,0,1-1.27-5.05c-.05-2.18-1.14-4-1.44-6a47.78,47.78,0,0,0-1.79-5.8c-1.05-3.62-2.32-7.14-3.67-10.66-1.94-5-4.14-10-6.27-14.89-1.63-3.75-4-7.08-5.69-10.76a23.75,23.75,0,0,0-2.37-4c-3-4.14-5.65-8.54-8.71-12.67s-6.39-8.23-9.84-12.11-7.45-7.55-11.2-11.3c-.49-.49-1-.94-1.43-1.32-.33.11-.45.12-.51.18-6.74,6.78-13.74,13.32-19.62,20.91a50.92,50.92,0,0,0-4.26,5.73C154,78.39,152,81,150.17,83.8c-2.72,4.27-5.21,8.66-7.57,13.12a144.72,144.72,0,0,0-7.53,16.87c-.85,2.25-1.69,4.5-2.49,6.77-.86,2.46-1.84,4.89-2.46,7.41s-1.36,5.31-2.07,7.92c-.83,3.09-1.37,6.26-2.29,9.33-.48,1.6,0,3.61-.79,5-.92,1.62.25,3.51-1.13,4.86a17.47,17.47,0,0,1-.56,4.76c-.34,1.64-.26,3.35-.59,5.05-.45,2.25-.15,4.59-.62,6.93s0,4.77-.13,7.16-.56,4.59-.66,6.93c-.27,5.78.79,11.48.72,17.24a25.73,25.73,0,0,0,.45,5.7c.53,2.52.23,5.22.71,7.85.46,2.47.2,5.09.77,7.52.38,1.61.17,3.26.64,4.72a16,16,0,0,1,.53,2.9c.13,1,.45,1.91.6,2.87a30.36,30.36,0,0,0,.73,5c.58,1.69.7,3.44,1.14,5.14s.72,3.45,1.3,5.09.57,3.07.95,4.59c.64,2.55,1.61,5,2.1,7.57a101.31,101.31,0,0,0,3,10.61c1.14,3.69,2.31,7.37,3.46,11ZM101.21,241.11c-.89.15-1.59.24-2.26.4-3.13.74-6.22,1.59-9.37,2.21a26.2,26.2,0,0,0-6.11,1.84c-4.83,2.24-7,6.16-7,11.14-.13,16.24,0,32.48,0,48.72v2.08c.5,0,.75.08.91,0q6-3.25,12.18-6c4.4-1.91,8.6-4.27,13-6.18,3.87-1.68,7.56-3.76,11.44-5.72-1.46-4.54-3.06-9-4.31-13.56-.73-2.61-1.45-5.25-2.16-7.87-.52-1.95-1-3.94-1.56-5.88-.94-3.47-1.9-7-2.6-10.47S101.93,244.91,101.21,241.11Zm182.32,66.72v-8.48q0-21.39,0-42.79a12.22,12.22,0,0,0-2.24-7.17c-2.44-3.39-6.09-5-10.12-5.58a65.41,65.41,0,0,1-6.84-1.62c-1-.25-2.17.13-2.92-.4a3.34,3.34,0,0,0-2.66-.44,56.14,56.14,0,0,0-1.92,8.78c-.65,4.09-1.84,8-2.77,12-.79,3.44-1.77,6.92-2.84,10.33-1.24,4-2.27,8-3.61,11.95-.58,1.73-1.1,3.49-1.66,5.26,4.95,2.12,9.47,4.69,14.25,6.75,4.32,1.86,8.48,4.12,12.77,6.08C276.37,304.08,279.67,305.88,283.53,307.83Z"/><path class="cls-1" d="M223.7,180.35c.48,4.17-.77,8.7-2,13A36,36,0,0,1,216.4,204a40.76,40.76,0,0,1-7.78,8.91c-3.66,2.89-7.22,6.08-12,7.17-2.86,2.13-6.46,1.95-9.65,3.07-1,.36-2.27,0-3.4.08-1,.09-1.93.64-2.86.56-4.92-.4-9.84-.85-14.57-2.44a46.68,46.68,0,0,1-12.52-6.71,42,42,0,0,1-6.52-6,45.53,45.53,0,0,1-7.7-12.72c-1-2.43-1.43-5-2.36-7.45-.75-2-1.15-11.27-.64-13.14.73-2.64.79-5.42,1.81-8a57.26,57.26,0,0,1,3-7.49A47,47,0,0,1,152.43,146a47.74,47.74,0,0,1,10.79-6.45,39.63,39.63,0,0,1,8.57-2.71,45.64,45.64,0,0,1,7.25-.46,39.75,39.75,0,0,1,7.48,0,44,44,0,0,1,9.75,2.77,41.68,41.68,0,0,1,4.47,2,31,31,0,0,1,4.19,2.68,45,45,0,0,1,9,8.47,51.61,51.61,0,0,1,5.82,9.17,36.9,36.9,0,0,1,2.73,8.24,13.93,13.93,0,0,1,.66,3.18,33.41,33.41,0,0,0,.55,3.5C223.78,177.54,223.7,178.69,223.7,180.35Zm-44.18,17.86c1.35,0,2.18,0,3,0a12.57,12.57,0,0,0,8.33-3.17c2.64-2.12,5.22-4.5,6.24-8,1.51-1.32.46-3.51,1.65-4.93a19.87,19.87,0,0,0-1-8.33,18.9,18.9,0,0,0-4.77-7.41c-3.5-3.27-7.45-5.16-12.28-5-.93,0-1.87,0-2.8,0a14.35,14.35,0,0,0-7.41,2.45,20.08,20.08,0,0,0-7.57,8.65c-.67,1.46-.54,2.94-1.07,4.25-1.12,2.83-.12,6.9.8,9.58a18.57,18.57,0,0,0,1.85,3.6,18.14,18.14,0,0,0,5.71,5.82C173.15,197.63,176.4,198.73,179.52,198.21Z"/></svg>